<svg id="Logo" xmlns="http://www.w3.org/2000/svg" viewBox="0 0 1106.9447021 368.9815369"><style>.st0{display:none;fill:#9bead3}.st1{fill:#111}.st2{fill:#f99d0b}.st3{fill:#f4f4f4}</style><path class="st0" d="M-154.492-65.099h1282.361v480H-154.492z"/><path class="st1" d="M42.037 151.346h24.44a5.066 5.066 0 0 1 4.908 3.81L103.97 282.54c1.287 5.028 8.408 5.102 9.788.099 1.613-5.85 3.301-11.793 5.14-17.687 11.242-36.029 22.703-71.988 34.203-107.935 1.017-3.18 4.58-5.813 7.918-5.874a411.997 411.997 0 0 1 20.117.095c1.194.037 3.05 1.526 3.401 2.702 14.59 48.878 29.043 97.797 43.517 146.71.076.258.17.51.155.454-.23-.807.015-1.674.237-2.484l39.292-143.466a5.066 5.066 0 0 1 4.886-3.728H296.1c3.416 0 5.85 3.317 4.834 6.578a968.088 968.088 0 0 1-2.86 9.065c-17.695 54.879-35.37 109.764-53.256 164.581-.538 1.648-3.273 3.575-5.057 3.65-7.71.327-15.44.214-23.791.18a5.07 5.07 0 0 1-4.823-3.572l-38.232-123.91c-1.495-4.845-8.39-4.73-9.726.16-2.77 10.15-5.795 21.052-9.278 31.806-10.127 31.27-20.92 62.324-31.493 93.448-.262.773-1.206 1.87-1.843 1.877-8.6.105-17.201.09-26.062.085a5.074 5.074 0 0 1-4.853-3.603L37.19 157.88c-.981-3.252 1.451-6.535 4.848-6.535zm470.452 147.638l39.436-143.9a5.066 5.066 0 0 1 4.885-3.727h23.46c3.411 0 5.846 3.31 4.837 6.568a824.169 824.169 0 0 1-2.88 9.166c-17.719 54.955-35.423 109.915-53.322 164.812-.503 1.543-3.09 3.346-4.765 3.41-7.79.294-15.594.195-24.012.166a5.07 5.07 0 0 1-4.823-3.573l-38.238-123.947c-1.485-4.813-8.32-4.746-9.707.097-3.764 13.14-7.853 27.402-12.407 41.515-8.963 27.779-18.613 55.337-28.133 82.932-.439 1.272-2.462 2.801-3.784 2.836-8.036.214-16.08.155-24.34.135a5.072 5.072 0 0 1-4.845-3.603l-52.477-173.909c-.98-3.252 1.452-6.534 4.848-6.534h24.437a5.065 5.065 0 0 1 4.907 3.81l32.551 127.253c1.272 4.973 8.308 5.12 9.755.196.206-.7.417-1.399.632-2.096 10.794-34.914 21.723-69.786 32.623-104.666 1.913-6.12 3.777-12.262 5.87-18.32 1.196-3.462 5.204-6.377 8.866-6.474a306.374 306.374 0 0 1 18.976.106c1.353.048 3.481 1.505 3.848 2.73 14.61 48.872 29.058 97.793 43.532 146.706.065.22.145.436.155.452.362.627-.077-1.443.115-2.141z"/><circle class="st1" cx="1059.366" cy="314.071" r="21.836"/><path class="st2" d="M945.036 109.234c15.167-2.666 14.5-5 10.5.667s-1.5 15.833 3 16.167c4.5.333 6.667-1.5 13 8.166 6.333 9.667 4.333 16.834 9.5 16.334 4.296-.416 12.621 8.498 15.305 11.514 2.43-7.71-12.147-30.89-6.905-35.723 8-7.375-1.443-26.068 2.667-33.625 5.166-9.5 20.666-16.333 31.333-19-27-9.75-32.334-.666-51.834-10.166S890.936.734 836.436 26.234s-73.167 25.334-96.167 50.667-31 47.667-57.667 61.333c-26.666 13.667-93 14.667-124.666 68a240.907 240.907 0 0 1-13.426 20.255c-.741 4.864-.937 14.763 10.193 13.245 0 0-14.167 10.334-2 11.667 12.166 1.333 27.949 10.02 13.28 13.755l-.017.005c32.78-6.321 43.964 3.632 88.97-58.927 0 0 22.919-28.654 4.5 20-4.058 10.718-8.3 16.858-12.509 20.729 4.111-.619 10.358.082 10.692 9.938.5 14.75 40.816 2.046 51.658-7.102 13.432-11.676 22.795-30.264 48.159-72.234 28-46.33 44-22.33 69.5-42.83 23.507-18.899 23.239-15.686 45.378 5.298 4.534 3.071 5.396-5.093.586-11.476-4.968-6.594-2.78-12.281.875-13.75 3.559-1.43 7.574-2.8 9.242-3.36 3.868-1.407 10.752-3.591 17.804-4.027.006 0 .01-.002.017-.003 22.968-3.484 29.031 4.484 44.198 1.817z"/><path class="st3" d="M552.703 251.4c-12.167-1.332 2-11.666 2-11.666-11.13 1.518-10.934-8.38-10.193-13.245-25.454 42.753-26.898 48.035-19.136 79.397.215.868 1.468.807 1.591-.079 1.341-9.695 6.631-31.706 27.22-37.823 4.236-1.258 8.144-2.122 11.781-2.823l.016-.005c14.67-3.735-1.113-12.422-13.28-13.755z"/><path class="st1" d="M657.62 256.9c-.335-9.855-6.582-10.556-10.693-9.937-14.116 12.982-27.856.37-32.991 48.771 0 0-.903 18.326-22 27.334-14.834 6.333 2.166 22.5 27.833 4.833 0 0 11-7.833 13.667-28.167 3.253-24.807 55.5-35 71.5-46.5a59.739 59.739 0 0 0 4.341-3.435c-10.842 9.148-51.158 21.851-51.658 7.102zM872.9 128.557c4.81 6.383 3.948 14.547-.586 11.476a433.298 433.298 0 0 0 6.122 5.701c28.5 26-18.5 14.5-24.5 36s16.5 12 26 8.5 43.24-21.714 34.5-34c-18.733-26.333-39.25-41.75-33.5-44a91.395 91.395 0 0 1 2.081-.787c-1.668.56-5.683 1.93-9.242 3.36-3.656 1.469-5.843 7.156-.875 13.75z"/><path class="st3" d="M921.686 117.11s6.478 1.482 19.25 8.374c16.833 9.084 29.916 37.5 36.75 37.375 5.262-.096 12.562 5.125 17.625.875.493-.414.819-.981 1.03-1.652-2.684-3.016-11.009-11.93-15.305-11.514-5.167.5-3.167-6.667-9.5-16.334-6.333-9.666-8.5-7.833-13-8.166-4.5-.334-7-10.5-3-16.167s4.667-3.333-10.5-.667c-15.167 2.667-21.23-5.3-44.198-1.817l-.017.003c8.238-.509 16.706 1.37 20.865 9.69z"/><path class="st1" d="M996.341 157.286s-3.639-1.781-4.618-.02c-.979 1.76-.02 3.635 0 5.01s-.359 2.29.413 2.968c.18.159 3.586-.87 4.205-3.162.327-1.208.778-2.014 0-4.796z"/></svg>